<?xml version="1.0" encoding="iso-8859-1"?>
<!-- Generator: Adobe Illustrator 19.0.0, SVG Export Plug-In . SVG Version: 6.00 Build 0)  -->
<svg version="1.1" id="Layer_1" xmlns="http://www.w3.org/2000/svg" xmlns:xlink="http://www.w3.org/1999/xlink" x="0px" y="0px"
	 viewBox="0 0 482.485 482.485" style="enable-background:new 0 0 482.485 482.485;" xml:space="preserve">
<path style="fill:#3A556A;" d="M471.04,0.301H12.047c-6.626,0-11.445,5.421-11.445,11.445v68.668h481.882V11.746
	C482.485,5.722,477.064,0.301,471.04,0.301z"/>
<circle style="fill:#FCD462;" cx="359.002" cy="40.659" r="13.252"/>
<circle style="fill:#44C4A1;" cx="405.986" cy="40.659" r="13.252"/>
<circle style="fill:#E56353;" cx="452.969" cy="40.659" r="13.252"/>
<path style="fill:#EBF0F3;" d="M106.014,71.981h81.92l-5.421-14.456c-0.602-2.409-3.012-3.614-5.421-3.614H99.388
	c0,0.602,0.602,0.602,0.602,1.205L106.014,71.981z"/>
<path style="fill:#64798A;" d="M482.485,80.414h-378.88c-2.409,0-4.819-1.807-5.421-3.614l-6.626-19.275
	c-0.602-2.409-3.012-3.614-5.421-3.614H27.106c-2.409,0-4.819,1.807-5.421,3.614L15.059,76.8c-0.602,2.409-3.012,3.614-5.421,3.614
	H0.602v40.358h481.882V80.414z"/>
<path style="fill:#EBF0F3;" d="M0.602,470.739c0,6.626,5.421,11.445,11.445,11.445h458.391c6.626,0,11.445-5.421,11.445-11.445
	V120.772H0v349.967H0.602z"/>
<g>
	<path style="fill:#FFFFFF;" d="M0.602,452.668c0,6.626,5.421,11.445,11.445,11.445h458.391c6.626,0,11.445-5.421,11.445-11.445
		V120.772H0v331.896H0.602z"/>
	<path style="fill:#FFFFFF;" d="M87.944,105.713H35.539c-3.012,0-5.421-2.409-5.421-5.421s2.409-5.421,5.421-5.421h52.405
		c3.012,0,5.421,2.409,5.421,5.421S90.955,105.713,87.944,105.713z"/>
	<path style="fill:#FFFFFF;" d="M177.694,105.713h-52.405c-3.012,0-5.421-2.409-5.421-5.421s2.409-5.421,5.421-5.421h52.405
		c3.012,0,5.421,2.409,5.421,5.421C183.115,103.304,180.706,105.713,177.694,105.713z"/>
	<path style="fill:#FFFFFF;" d="M268.047,105.713h-52.405c-3.012,0-5.421-2.409-5.421-5.421s2.409-5.421,5.421-5.421h52.405
		c3.012,0,5.421,2.409,5.421,5.421C272.866,103.304,270.456,105.713,268.047,105.713z"/>
	<path style="fill:#FFFFFF;" d="M357.798,105.713h-52.405c-3.012,0-5.421-2.409-5.421-5.421s2.409-5.421,5.421-5.421h52.405
		c3.012,0,5.421,2.409,5.421,5.421C362.616,103.304,360.809,105.713,357.798,105.713z"/>
	<path style="fill:#FFFFFF;" d="M447.548,105.713h-52.405c-3.012,0-5.421-2.409-5.421-5.421s2.409-5.421,5.421-5.421h52.405
		c3.012,0,5.421,2.409,5.421,5.421S450.56,105.713,447.548,105.713z"/>
</g>
<path style="fill:#EBF0F3;" d="M123.482,139.445H28.913c-6.024,0-10.842,4.819-10.842,10.842v285.515
	c0,6.024,4.819,10.842,10.842,10.842h94.569c6.024,0,10.842-4.819,10.842-10.842V149.685
	C134.325,144.264,129.506,139.445,123.482,139.445z"/>
<circle style="fill:#E56353;" cx="74.692" cy="194.259" r="34.936"/>
<g>
	<rect x="34.334" y="262.927" style="fill:#D5D6DB;" width="83.727" height="9.035"/>
	<rect x="34.334" y="293.647" style="fill:#D5D6DB;" width="83.727" height="9.035"/>
	<rect x="34.334" y="324.969" style="fill:#D5D6DB;" width="83.727" height="9.035"/>
	<rect x="34.334" y="355.689" style="fill:#D5D6DB;" width="83.727" height="9.035"/>
	<rect x="34.334" y="386.409" style="fill:#D5D6DB;" width="83.727" height="9.035"/>
	<rect x="34.334" y="417.129" style="fill:#D5D6DB;" width="83.727" height="9.035"/>
</g>
<rect x="175.887" y="147.878" style="fill:#FCD462;" width="77.101" height="77.101"/>
<rect x="175.887" y="247.266" style="fill:#27A2DB;" width="77.101" height="77.101"/>
<circle style="fill:#64798A;" cx="402.974" cy="403.275" r="47.586"/>
<g>
	<circle style="fill:#EBF0F3;" cx="402.974" cy="379.181" r="17.468"/>
	<path style="fill:#EBF0F3;" d="M402.974,442.428c13.854,0,26.504-7.228,33.129-18.673c-5.421-12.649-18.071-21.685-33.129-21.685
		c-15.059,0-27.708,9.035-33.129,21.685C376.471,435.2,389.12,442.428,402.974,442.428z"/>
</g>
<circle style="fill:#FCD462;" cx="222.871" cy="403.275" r="47.586"/>
<g>
	<circle style="fill:#DC8744;" cx="222.871" cy="379.181" r="17.468"/>
	<path style="fill:#DC8744;" d="M222.871,442.428c13.854,0,26.504-7.228,33.129-18.673c-5.421-12.649-18.071-21.685-33.129-21.685
		s-27.708,9.035-33.129,21.685C196.969,435.2,209.016,442.428,222.871,442.428z"/>
</g>
<g>
	<rect x="279.492" y="154.504" style="fill:#D5D6DB;" width="175.887" height="9.035"/>
	<rect x="279.492" y="182.212" style="fill:#D5D6DB;" width="175.887" height="9.035"/>
	<rect x="279.492" y="209.318" style="fill:#D5D6DB;" width="123.482" height="9.035"/>
	<rect x="279.492" y="254.494" style="fill:#D5D6DB;" width="175.887" height="9.035"/>
	<rect x="279.492" y="281.6" style="fill:#D5D6DB;" width="175.887" height="9.035"/>
	<rect x="279.492" y="309.308" style="fill:#D5D6DB;" width="123.482" height="9.035"/>
</g>
<g>
</g>
<g>
</g>
<g>
</g>
<g>
</g>
<g>
</g>
<g>
</g>
<g>
</g>
<g>
</g>
<g>
</g>
<g>
</g>
<g>
</g>
<g>
</g>
<g>
</g>
<g>
</g>
<g>
</g>
</svg>
