<svg xmlns="http://www.w3.org/2000/svg" xml:space="preserve" style="enable-background:new 0 0 482.485 482.485" viewBox="0 0 482.485 482.485"><path d="M471.04.301H12.047C5.421.301.602 5.722.602 11.746v68.668h481.882V11.746c.001-6.024-5.42-11.445-11.444-11.445z" style="fill:#3a556a"/><circle cx="359.002" cy="40.659" r="13.252" style="fill:#fcd462"/><circle cx="405.986" cy="40.659" r="13.252" style="fill:#44c4a1"/><circle cx="452.969" cy="40.659" r="13.252" style="fill:#e56353"/><path d="M106.014 71.981h81.92l-5.421-14.456c-.602-2.409-3.012-3.614-5.421-3.614H99.388c0 .602.602.602.602 1.205l6.024 16.865z" style="fill:#ebf0f3"/><path d="M482.485 80.414h-378.88c-2.409 0-4.819-1.807-5.421-3.614l-6.626-19.275c-.602-2.409-3.012-3.614-5.421-3.614H27.106c-2.409 0-4.819 1.807-5.421 3.614L15.059 76.8c-.602 2.409-3.012 3.614-5.421 3.614H.602v40.358h481.882V80.414z" style="fill:#64798a"/><path d="M.602 470.739c0 6.626 5.421 11.445 11.445 11.445h458.391c6.626 0 11.445-5.421 11.445-11.445V120.772H0v349.967h.602z" style="fill:#ebf0f3"/><path d="M.602 452.668c0 6.626 5.421 11.445 11.445 11.445h458.391c6.626 0 11.445-5.421 11.445-11.445V120.772H0v331.896h.602zM87.944 105.713H35.539c-3.012 0-5.421-2.409-5.421-5.421s2.409-5.421 5.421-5.421h52.405c3.012 0 5.421 2.409 5.421 5.421s-2.41 5.421-5.421 5.421zM177.694 105.713h-52.405c-3.012 0-5.421-2.409-5.421-5.421s2.409-5.421 5.421-5.421h52.405a5.398 5.398 0 0 1 5.421 5.421 5.398 5.398 0 0 1-5.421 5.421zM268.047 105.713h-52.405c-3.012 0-5.421-2.409-5.421-5.421s2.409-5.421 5.421-5.421h52.405a5.398 5.398 0 0 1 5.421 5.421c-.602 3.012-3.012 5.421-5.421 5.421zM357.798 105.713h-52.405c-3.012 0-5.421-2.409-5.421-5.421s2.409-5.421 5.421-5.421h52.405a5.398 5.398 0 0 1 5.421 5.421c-.603 3.012-2.41 5.421-5.421 5.421zM447.548 105.713h-52.405c-3.012 0-5.421-2.409-5.421-5.421s2.409-5.421 5.421-5.421h52.405c3.012 0 5.421 2.409 5.421 5.421s-2.409 5.421-5.421 5.421z" style="fill:#fff"/><path d="M123.482 139.445H28.913a10.797 10.797 0 0 0-10.842 10.842v285.515a10.797 10.797 0 0 0 10.842 10.842h94.569a10.797 10.797 0 0 0 10.842-10.842V149.685c.001-5.421-4.818-10.24-10.842-10.24z" style="fill:#ebf0f3"/><circle cx="74.692" cy="194.259" r="34.936" style="fill:#e56353"/><path d="M34.334 262.927h83.727v9.035H34.334zM34.334 293.647h83.727v9.035H34.334zM34.334 324.969h83.727v9.035H34.334zM34.334 355.689h83.727v9.035H34.334zM34.334 386.409h83.727v9.035H34.334zM34.334 417.129h83.727v9.035H34.334z" style="fill:#d5d6db"/><path d="M175.887 147.878h77.101v77.101h-77.101z" style="fill:#fcd462"/><path d="M175.887 247.266h77.101v77.101h-77.101z" style="fill:#27a2db"/><circle cx="402.974" cy="403.275" r="47.586" style="fill:#64798a"/><circle cx="402.974" cy="379.181" r="17.468" style="fill:#ebf0f3"/><path d="M402.974 442.428c13.854 0 26.504-7.228 33.129-18.673-5.421-12.649-18.071-21.685-33.129-21.685-15.059 0-27.708 9.035-33.129 21.685 6.626 11.445 19.275 18.673 33.129 18.673z" style="fill:#ebf0f3"/><circle cx="222.871" cy="403.275" r="47.586" style="fill:#fcd462"/><circle cx="222.871" cy="379.181" r="17.468" style="fill:#dc8744"/><path d="M222.871 442.428c13.854 0 26.504-7.228 33.129-18.673-5.421-12.649-18.071-21.685-33.129-21.685s-27.708 9.035-33.129 21.685c7.227 11.445 19.274 18.673 33.129 18.673z" style="fill:#dc8744"/><path d="M279.492 154.504h175.887v9.035H279.492zM279.492 182.212h175.887v9.035H279.492zM279.492 209.318h123.482v9.035H279.492zM279.492 254.494h175.887v9.035H279.492zM279.492 281.6h175.887v9.035H279.492zM279.492 309.308h123.482v9.035H279.492z" style="fill:#d5d6db"/></svg>