<svg id="Capa_1" enable-background="new 0 0 511.999 511.999" height="512" viewBox="0 0 511.999 511.999" width="512" xmlns="http://www.w3.org/2000/svg"><g><g><g><path d="m74.83 146.395 45.661 45.661c34.68-34.68 82.589-56.13 135.509-56.13v-64.574c-70.751 0-134.804 28.678-181.17 75.043z" fill="#f6e266"/></g><g><path d="m437.169 146.395-45.661 45.661c-34.68-34.68-82.589-56.13-135.509-56.13v-64.574c70.752 0 134.805 28.678 181.17 75.043z" fill="#e49542"/></g><g><path d="m437.153 146.411-45.644 45.644c32.512 32.512 53.397 76.652 55.88 125.647.279 5.51 4.77 9.862 10.287 9.862h44.005c5.865 0 10.552-4.888 10.31-10.748-2.745-66.474-30.832-126.399-74.838-170.405z" fill="#c8ea73"/></g><g><path d="m459.629 172.109c.718 6.192 1.106 12.458 1.106 18.794 0 28.792-7.576 56.219-21.271 81.16 4.401 14.568 7.123 29.864 7.925 45.668.279 5.501 4.784 9.834 10.293 9.834h43.998c5.864 0 10.552-4.886 10.31-10.745-2.243-54.317-21.418-104.251-52.361-144.711z" fill="#b7e445"/></g><g><path d="m74.847 146.411 45.644 45.644c-32.512 32.512-53.397 76.652-55.88 125.647-.279 5.51-4.77 9.862-10.287 9.862h-44.005c-5.865 0-10.552-4.888-10.31-10.748 2.745-66.474 30.832-126.399 74.838-170.405z" fill="#dd5790"/></g><g><path d="m460.736 130.562c-1.979 0-3.958-.755-5.468-2.264-53.226-53.228-123.994-82.542-199.268-82.542-4.271 0-7.733-3.462-7.733-7.733s3.462-7.733 7.733-7.733c79.405 0 154.057 30.922 210.204 87.07 3.02 3.021 3.02 7.916 0 10.937-1.51 1.51-3.49 2.265-5.468 2.265z" fill="#dd5790"/></g><g><path d="m466.204 117.361c-2.69-2.688-6.936-3.023-10.014-.787l-237.14 172.331c-1.829 1.33-2.985 3.394-3.163 5.65-.177 2.254.642 4.475 2.241 6.074l64.808 64.809c1.455 1.455 3.425 2.264 5.467 2.264.202 0 .404-.008.607-.024 2.255-.177 4.319-1.333 5.65-3.163l172.331-237.14c2.237-3.077 1.902-7.324-.787-10.014z" fill="#4073c8"/></g><g><g><circle cx="256" cy="275.489" fill="#f1d0a5" r="52.076"/></g><g><path d="m281.902 230.319c4.385 7.631 6.906 16.469 6.906 25.902 0 28.761-23.315 52.076-52.076 52.076-9.433 0-18.271-2.521-25.902-6.906 8.986 15.636 25.842 26.174 45.17 26.174 28.761 0 52.076-23.315 52.076-52.076-.001-19.328-10.539-36.184-26.174-45.17z" fill="#f1b986"/></g><g><path d="m168.513 369.225v35.516c0 5.694 4.616 10.31 10.31 10.31h154.354c5.694 0 10.31-4.616 10.31-10.31v-35.516c0-23.008-18.652-41.661-41.661-41.661h-91.653c-23.008.001-41.66 18.653-41.66 41.661z" fill="#9dc6fb"/></g><g><path d="m301.826 327.565h-24.996c23.009 0 41.661 18.652 41.661 41.661v45.827h14.686c5.694 0 10.31-4.616 10.31-10.31v-35.516c0-23.01-18.652-41.662-41.661-41.662z" fill="#80b4fb"/></g></g></g><g><path d="m333.176 481.709h-154.353c-5.694 0-10.31-4.616-10.31-10.31v-12.708c0-5.694 4.616-10.31 10.31-10.31h154.354c5.694 0 10.31 4.616 10.31 10.31v12.708c0 5.694-4.616 10.31-10.311 10.31z" fill="#4073c8"/></g><g><g><path d="m219.989 415.052v-20.831c0-4.271-3.462-7.733-7.733-7.733s-7.733 3.462-7.733 7.733v20.831z" fill="#80b4fb"/></g><g><path d="m307.476 394.221c0-4.271-3.462-7.733-7.733-7.733s-7.733 3.462-7.733 7.733v20.831h15.466z" fill="#80b4fb"/></g></g><g><g><path d="m504.267 367.702h-49.145c-4.271 0-7.733-3.462-7.733-7.733s3.462-7.733 7.733-7.733h49.145c4.271 0 7.733 3.462 7.733 7.733s-3.463 7.733-7.733 7.733z" fill="#4073c8"/></g></g><g><g><path d="m491.382 401.031h-22.913c-4.271 0-7.733-3.462-7.733-7.733s3.462-7.733 7.733-7.733h22.913c4.271 0 7.733 3.462 7.733 7.733s-3.462 7.733-7.733 7.733z" fill="#4073c8"/></g></g><g><g><path d="m7.733 367.702h49.145c4.271 0 7.733-3.462 7.733-7.733s-3.462-7.733-7.733-7.733h-49.145c-4.271 0-7.733 3.462-7.733 7.733 0 4.272 3.462 7.733 7.733 7.733z" fill="#4073c8"/></g></g><g><g><path d="m20.618 401.031h22.913c4.271 0 7.733-3.462 7.733-7.733s-3.462-7.733-7.733-7.733h-22.913c-4.271 0-7.733 3.462-7.733 7.733s3.462 7.733 7.733 7.733z" fill="#4073c8"/></g></g></g></svg>