<svg id="Layer_1" enable-background="new 0 0 512 512" height="512" viewBox="0 0 512 512" width="512" xmlns="http://www.w3.org/2000/svg"><g><g><g><path d="m480 372h-296c-8.837 0-16-7.163-16-16v-256c0-8.837 7.163-16 16-16h296c8.837 0 16 7.163 16 16v256c0 8.837-7.163 16-16 16z" fill="#a5c3dc"/></g><g><path d="m456 372h-272c-8.837 0-16-7.163-16-16v-256c0-8.837 7.163-16 16-16h272c8.837 0 16 7.163 16 16v256c0 8.837-7.163 16-16 16z" fill="#d7e6f0"/></g><g><path d="m496 116h-328v-16c0-8.837 7.163-16 16-16h296c8.837 0 16 7.163 16 16z" fill="#463c4b"/></g><g><path d="m472 116h-304v-16c0-8.837 7.163-16 16-16h272c8.837 0 16 7.163 16 16z" fill="#555a6e"/></g><g><circle cx="200" cy="100" fill="#289bc3" r="8"/></g><g><circle cx="232" cy="100" fill="#ff6e91" r="8"/></g><g><circle cx="264" cy="100" fill="#d7e6f0" r="8"/></g></g><g><g><circle cx="336" cy="244" fill="#00d2d2" r="56"/></g><g><circle cx="316" cy="226.667" fill="#555a6e" r="12"/></g><g><circle cx="356" cy="226.667" fill="#555a6e" r="12"/></g><g><path d="m336 271.935c-6.379 0-12.758-3.035-18.828-9.106-1.563-1.562-1.563-4.095 0-5.656 1.561-1.563 4.096-1.563 5.656 0 9.109 9.109 17.234 9.109 26.344 0 1.561-1.563 4.096-1.563 5.656 0 1.563 1.562 1.563 4.095 0 5.656-6.07 6.07-12.449 9.106-18.828 9.106z" fill="#555a6e"/></g></g><g><g><g><path d="m120 180h168c8.837 0 16 7.163 16 16v248c0 8.837-7.163 16-16 16h-168c-8.837 0-16-7.163-16-16v-248c0-8.837 7.163-16 16-16z" fill="#a5c3dc"/></g><g><path d="m120 180h168c8.837 0 16 7.163 16 16v24h-200v-24c0-8.837 7.163-16 16-16z" fill="#463c4b"/></g><g><path d="m120 180h144c8.837 0 16 7.163 16 16v248c0 8.837-7.163 16-16 16h-144c-8.837 0-16-7.163-16-16v-248c0-8.837 7.163-16 16-16z" fill="#d7e6f0"/></g><g><path d="m120 180h144c8.837 0 16 7.163 16 16v24h-176v-24c0-8.837 7.163-16 16-16z" fill="#555a6e"/></g></g></g><g><g><circle cx="192" cy="340" fill="#00d2d2" r="56"/></g><g><circle cx="172" cy="324" fill="#555a6e" r="12"/></g><g><circle cx="212" cy="324" fill="#555a6e" r="12"/></g><g><path d="m192 368c-6.408 0-12.743-3.086-18.829-9.172-1.562-1.562-1.562-4.095 0-5.656 1.563-1.563 4.095-1.562 5.657 0 4.531 4.531 8.963 6.828 13.172 6.828s8.641-2.297 13.171-6.828c1.563-1.563 4.095-1.563 5.657 0 1.563 1.562 1.563 4.095 0 5.656-6.085 6.086-12.42 9.172-18.828 9.172z" fill="#555a6e"/></g></g><g><g><g><path d="m32 52h104c8.837 0 16 7.163 16 16v192c0 8.837-7.163 16-16 16h-104c-8.837 0-16-7.163-16-16v-192c0-8.837 7.163-16 16-16z" fill="#a5c3dc"/></g><g><path d="m32 52h104c8.837 0 16 7.163 16 16v16h-136v-16c0-8.837 7.163-16 16-16z" fill="#463c4b"/></g><g><path d="m32 52h80c8.837 0 16 7.163 16 16v192c0 8.837-7.163 16-16 16h-80c-8.837 0-16-7.163-16-16v-192c0-8.837 7.163-16 16-16z" fill="#d7e6f0"/></g><g><path d="m32 52h80c8.837 0 16 7.163 16 16v16h-112v-16c0-8.837 7.163-16 16-16z" fill="#555a6e"/></g></g></g><g><g><circle cx="72" cy="180" fill="#00d2d2" r="56"/></g><g><circle cx="52" cy="164" fill="#555a6e" r="12"/></g><g><circle cx="92" cy="164" fill="#555a6e" r="12"/></g><g><path d="m72 208c-6.408 0-12.743-3.086-18.829-9.172-1.562-1.562-1.562-4.095 0-5.656 1.563-1.563 4.095-1.562 5.657 0 4.531 4.531 8.963 6.828 13.172 6.828s8.641-2.297 13.171-6.828c1.563-1.563 4.095-1.563 5.657 0 1.563 1.562 1.563 4.095 0 5.656-6.085 6.086-12.42 9.172-18.828 9.172z" fill="#555a6e"/></g></g><g fill="#555a6e"><path d="m91.79 323.393-18.177-14.138c-1.046-.813-2.332-1.255-3.657-1.255-3.29 0-5.956 2.667-5.956 5.956v10.044h-16c-4.411 0-8-3.589-8-8v-24c0-4.418-3.582-8-8-8s-8 3.582-8 8v24c0 13.233 10.766 24 24 24h16v10.044c0 3.289 2.667 5.956 5.956 5.956 1.325 0 2.611-.441 3.657-1.255l18.177-14.138c2.656-2.065 4.21-5.242 4.21-8.607s-1.554-6.542-4.21-8.607z"/><path d="m382.745 402.387-14.138-18.177c-2.066-2.656-5.243-4.21-8.608-4.21s-6.542 1.554-8.608 4.21l-14.138 18.177c-.813 1.046-1.255 2.332-1.255 3.657 0 3.289 2.667 5.956 5.956 5.956h10.046v16c0 4.411-3.589 8-8 8h-24c-4.418 0-8 3.582-8 8s3.582 8 8 8h24c13.233 0 24-10.767 24-24v-16h10.044c3.29 0 5.956-2.667 5.956-5.956 0-1.325-.441-2.611-1.255-3.657z"/></g></g></svg>