<?xml version="1.0" encoding="UTF-8" standalone="no"?>
<!DOCTYPE svg PUBLIC "-//W3C//DTD SVG 1.1//EN" "http://www.w3.org/Graphics/SVG/1.1/DTD/svg11.dtd">
<svg version="1.1" xmlns="http://www.w3.org/2000/svg" xmlns:xlink="http://www.w3.org/1999/xlink" preserveAspectRatio="xMidYMid meet" viewBox="226.19718309859158 211.64788732394365 118.00000000000009 118.00000000000003" width="100" height="100"><defs><path d="M336.2 269.65C336.2 297.24 313.79 319.65 286.2 319.65C258.6 319.65 236.2 297.24 236.2 269.65C236.2 242.05 258.6 219.65 286.2 219.65C313.79 219.65 336.2 242.05 336.2 269.65Z" id="j7Rhaxbkr"></path><path d="M255.79 236.68C259.34 233.01 263.99 231.74 266.17 233.85C268.36 235.95 267.25 240.65 263.71 244.32C260.16 247.99 255.51 249.26 253.33 247.15C251.14 245.05 252.25 240.35 255.79 236.68Z" id="dloT6ytaO"></path><path d="M293.46 284.06C293.46 292.77 286.25 299.84 277.38 299.84C268.5 299.84 261.3 292.77 261.3 284.06C261.3 275.34 268.5 268.27 277.38 268.27C286.25 268.27 293.46 275.34 293.46 284.06Z" id="bhqdA38bw"></path><path d="M330.95 254.67C333.41 260.3 332.34 266.2 328.57 267.85C324.81 269.49 319.76 266.25 317.3 260.62C314.85 254.99 315.92 249.09 319.68 247.45C323.45 245.81 328.5 249.04 330.95 254.67Z" id="a7cZX4BwK"></path><path d="M300.89 229.69C300.28 232.37 296.53 233.8 292.53 232.89C288.52 231.98 285.76 229.07 286.37 226.39C286.98 223.72 290.72 222.28 294.73 223.19C298.74 224.1 301.5 227.02 300.89 229.69Z" id="a9ZGqwLEw"></path><path d="M323.96 283.42C328.01 287.37 327.12 294.87 321.97 300.15C316.82 305.44 309.34 306.53 305.29 302.58C301.24 298.63 302.13 291.13 307.28 285.85C312.43 280.56 319.91 279.47 323.96 283.42Z" id="auK18k0na"></path><path d="M250.4 277.47C251.78 281.52 250.46 285.64 247.47 286.65C244.48 287.67 240.93 285.21 239.55 281.16C238.18 277.11 239.49 273 242.48 271.98C245.48 270.96 249.02 273.42 250.4 277.47Z" id="eUZsnpZbn"></path><path d="M295.46 252C295.46 255.73 292.44 258.75 288.71 258.75C284.98 258.75 281.96 255.73 281.96 252C281.96 248.27 284.98 245.25 288.71 245.25C292.44 245.25 295.46 248.27 295.46 252Z" id="c3fkjCxITt"></path></defs><g><g><g><filter id="shadow914582" x="213.2" y="196.65" width="147" height="147" filterUnits="userSpaceOnUse" primitiveUnits="userSpaceOnUse"><feFlood></feFlood><feComposite in2="SourceAlpha" operator="in"></feComposite><feGaussianBlur stdDeviation="2.83"></feGaussianBlur><feOffset dx="-1" dy="1" result="afterOffset"></feOffset><feFlood flood-color="#ffffff" flood-opacity="0.5"></feFlood><feComposite in2="afterOffset" operator="in"></feComposite><feMorphology operator="dilate" radius="1"></feMorphology><feComposite in2="SourceAlpha" operator="out"></feComposite></filter><path d="M336.2 269.65C336.2 297.24 313.79 319.65 286.2 319.65C258.6 319.65 236.2 297.24 236.2 269.65C236.2 242.05 258.6 219.65 286.2 219.65C313.79 219.65 336.2 242.05 336.2 269.65Z" id="b3HMslNod" fill="white" fill-opacity="1" filter="url(#shadow914582)"></path></g><use xlink:href="#j7Rhaxbkr" opacity="1" fill="#7b7b7b" fill-opacity="1"></use><g><filter id="shadow367213" x="207.2" y="190.65" width="162" height="162" filterUnits="userSpaceOnUse" primitiveUnits="userSpaceOnUse"><feFlood></feFlood><feComposite in2="SourceAlpha" operator="out"></feComposite><feGaussianBlur stdDeviation="2.83"></feGaussianBlur><feOffset dx="-4" dy="4" result="afterOffset"></feOffset><feFlood flood-color="#515151" flood-opacity="0.8"></feFlood><feComposite in2="afterOffset" operator="in"></feComposite><feMorphology operator="dilate" radius="4"></feMorphology><feComposite in2="SourceAlpha" operator="in"></feComposite></filter><path d="M336.2 269.65C336.2 297.24 313.79 319.65 286.2 319.65C258.6 319.65 236.2 297.24 236.2 269.65C236.2 242.05 258.6 219.65 286.2 219.65C313.79 219.65 336.2 242.05 336.2 269.65Z" id="a9ZO0hXH0" fill="white" fill-opacity="1" filter="url(#shadow367213)"></path></g></g><g><use xlink:href="#dloT6ytaO" opacity="1" fill="#686767" fill-opacity="1"></use><g><use xlink:href="#dloT6ytaO" opacity="1" fill-opacity="0" stroke="#676762" stroke-width="1" stroke-opacity="1"></use></g><g><filter id="shadow1697225" x="239.2" y="219.83" width="44.09" height="42.35" filterUnits="userSpaceOnUse" primitiveUnits="userSpaceOnUse"><feFlood></feFlood><feComposite in2="SourceAlpha" operator="out"></feComposite><feGaussianBlur stdDeviation="1.41"></feGaussianBlur><feOffset dx="3" dy="1" result="afterOffset"></feOffset><feFlood flood-color="#464646" flood-opacity="0.8"></feFlood><feComposite in2="afterOffset" operator="in"></feComposite><feMorphology operator="dilate" radius="1"></feMorphology><feComposite in2="SourceAlpha" operator="in"></feComposite></filter><path d="M255.79 236.68C259.34 233.01 263.99 231.74 266.17 233.85C268.36 235.95 267.25 240.65 263.71 244.32C260.16 247.99 255.51 249.26 253.33 247.15C251.14 245.05 252.25 240.35 255.79 236.68Z" id="cP1CqQYvt" fill="white" fill-opacity="1" filter="url(#shadow1697225)"></path></g></g><g><use xlink:href="#bhqdA38bw" opacity="1" fill="#929292" fill-opacity="1"></use><g><filter id="shadow8619554" x="233.3" y="240.27" width="88.16" height="87.57" filterUnits="userSpaceOnUse" primitiveUnits="userSpaceOnUse"><feFlood></feFlood><feComposite in2="SourceAlpha" operator="out"></feComposite><feGaussianBlur stdDeviation="3.16"></feGaussianBlur><feOffset dx="0" dy="0" result="afterOffset"></feOffset><feFlood flood-color="#464646" flood-opacity="0.8"></feFlood><feComposite in2="afterOffset" operator="in"></feComposite><feMorphology operator="dilate" radius="3"></feMorphology><feComposite in2="SourceAlpha" operator="in"></feComposite></filter><path d="M293.46 284.06C293.46 292.77 286.25 299.84 277.38 299.84C268.5 299.84 261.3 292.77 261.3 284.06C261.3 275.34 268.5 268.27 277.38 268.27C286.25 268.27 293.46 275.34 293.46 284.06Z" id="a6FNWuQO1B" fill="white" fill-opacity="1" filter="url(#shadow8619554)"></path></g></g><g><use xlink:href="#a7cZX4BwK" opacity="1" fill="#6e6d6d" fill-opacity="1"></use><g><filter id="shadow1792949" x="298.98" y="230.02" width="52.29" height="56.25" filterUnits="userSpaceOnUse" primitiveUnits="userSpaceOnUse"><feFlood></feFlood><feComposite in2="SourceAlpha" operator="out"></feComposite><feGaussianBlur stdDeviation="2"></feGaussianBlur><feOffset dx="-2" dy="1" result="afterOffset"></feOffset><feFlood flood-color="#444444" flood-opacity="0.8"></feFlood><feComposite in2="afterOffset" operator="in"></feComposite><feMorphology operator="dilate" radius="2"></feMorphology><feComposite in2="SourceAlpha" operator="in"></feComposite></filter><path d="M330.95 254.67C333.41 260.3 332.34 266.2 328.57 267.85C324.81 269.49 319.76 266.25 317.3 260.62C314.85 254.99 315.92 249.09 319.68 247.45C323.45 245.81 328.5 249.04 330.95 254.67Z" id="a3zmDiBpy6" fill="white" fill-opacity="1" filter="url(#shadow1792949)"></path></g></g><g><use xlink:href="#a9ZGqwLEw" opacity="1" fill="#626262" fill-opacity="1"></use><g><filter id="shadow4637919" x="270.28" y="206.92" width="46.69" height="45.25" filterUnits="userSpaceOnUse" primitiveUnits="userSpaceOnUse"><feFlood></feFlood><feComposite in2="SourceAlpha" operator="out"></feComposite><feGaussianBlur stdDeviation="2"></feGaussianBlur><feOffset dx="0" dy="3" result="afterOffset"></feOffset><feFlood flood-color="#323232" flood-opacity="0.8"></feFlood><feComposite in2="afterOffset" operator="in"></feComposite><feMorphology operator="dilate" radius="0"></feMorphology><feComposite in2="SourceAlpha" operator="in"></feComposite></filter><path d="M300.89 229.69C300.28 232.37 296.53 233.8 292.53 232.89C288.52 231.98 285.76 229.07 286.37 226.39C286.98 223.72 290.72 222.28 294.73 223.19C298.74 224.1 301.5 227.02 300.89 229.69Z" id="c17WKTQMzQ" fill="white" fill-opacity="1" filter="url(#shadow4637919)"></path></g></g><g><use xlink:href="#auK18k0na" opacity="1" fill="#696767" fill-opacity="1"></use><g><filter id="shadow12302630" x="282.75" y="261.05" width="67.75" height="64.91" filterUnits="userSpaceOnUse" primitiveUnits="userSpaceOnUse"><feFlood></feFlood><feComposite in2="SourceAlpha" operator="out"></feComposite><feGaussianBlur stdDeviation="2.24"></feGaussianBlur><feOffset dx="-4" dy="-1" result="afterOffset"></feOffset><feFlood flood-color="#3c3c3c" flood-opacity="0.8"></feFlood><feComposite in2="afterOffset" operator="in"></feComposite><feMorphology operator="dilate" radius="1"></feMorphology><feComposite in2="SourceAlpha" operator="in"></feComposite></filter><path d="M323.96 283.42C328.01 287.37 327.12 294.87 321.97 300.15C316.82 305.44 309.34 306.53 305.29 302.58C301.24 298.63 302.13 291.13 307.28 285.85C312.43 280.56 319.91 279.47 323.96 283.42Z" id="d5fWBj7CN" fill="white" fill-opacity="1" filter="url(#shadow12302630)"></path></g></g><g><use xlink:href="#eUZsnpZbn" opacity="1" fill="#6b6868" fill-opacity="1"></use><g><filter id="shadow13181411" x="221.01" y="253.75" width="49.94" height="52.13" filterUnits="userSpaceOnUse" primitiveUnits="userSpaceOnUse"><feFlood></feFlood><feComposite in2="SourceAlpha" operator="out"></feComposite><feGaussianBlur stdDeviation="2.24"></feGaussianBlur><feOffset dx="2" dy="-1" result="afterOffset"></feOffset><feFlood flood-color="#393636" flood-opacity="0.8"></feFlood><feComposite in2="afterOffset" operator="in"></feComposite><feMorphology operator="dilate" radius="1"></feMorphology><feComposite in2="SourceAlpha" operator="in"></feComposite></filter><path d="M250.4 277.47C251.78 281.52 250.46 285.64 247.47 286.65C244.48 287.67 240.93 285.21 239.55 281.16C238.18 277.11 239.49 273 242.48 271.98C245.48 270.96 249.02 273.42 250.4 277.47Z" id="c1dUfXrhK" fill="white" fill-opacity="1" filter="url(#shadow13181411)"></path></g></g><g><use xlink:href="#c3fkjCxITt" opacity="1" fill="#807b7b" fill-opacity="1"></use><g><filter id="shadow6632694" x="266.96" y="230.25" width="43.5" height="43.5" filterUnits="userSpaceOnUse" primitiveUnits="userSpaceOnUse"><feFlood></feFlood><feComposite in2="SourceAlpha" operator="out"></feComposite><feGaussianBlur stdDeviation="2"></feGaussianBlur><feOffset dx="0" dy="0" result="afterOffset"></feOffset><feFlood flood-color="#545454" flood-opacity="0.8"></feFlood><feComposite in2="afterOffset" operator="in"></feComposite><feMorphology operator="dilate" radius="2"></feMorphology><feComposite in2="SourceAlpha" operator="in"></feComposite></filter><path d="M295.46 252C295.46 255.73 292.44 258.75 288.71 258.75C284.98 258.75 281.96 255.73 281.96 252C281.96 248.27 284.98 245.25 288.71 245.25C292.44 245.25 295.46 248.27 295.46 252Z" id="a3K2CZrY5t" fill="white" fill-opacity="1" filter="url(#shadow6632694)"></path></g></g></g></svg>