<?xml version="1.0" encoding="UTF-8" standalone="no"?>
<!DOCTYPE svg PUBLIC "-//W3C//DTD SVG 1.1//EN" "http://www.w3.org/Graphics/SVG/1.1/DTD/svg11.dtd">
<svg version="1.1" xmlns="http://www.w3.org/2000/svg" xmlns:xlink="http://www.w3.org/1999/xlink" preserveAspectRatio="xMidYMid meet" viewBox="238.05377456049635 203.94829369183037 111.99999999999997 112" width="100" height="100"><defs><path d="M344.05 259.95C344.05 287.54 321.65 309.95 294.05 309.95C266.46 309.95 244.05 287.54 244.05 259.95C244.05 232.35 266.46 209.95 294.05 209.95C321.65 209.95 344.05 232.35 344.05 259.95Z" id="c2GFqKKL6N"></path></defs><g><g><g><filter id="shadow11848474" x="230.05" y="195.95" width="128" height="128" filterUnits="userSpaceOnUse" primitiveUnits="userSpaceOnUse"><feFlood></feFlood><feComposite in2="SourceAlpha" operator="in"></feComposite><feGaussianBlur stdDeviation="1.73"></feGaussianBlur><feOffset dx="0" dy="0" result="afterOffset"></feOffset><feFlood flood-color="#ffd500" flood-opacity="0.5"></feFlood><feComposite in2="afterOffset" operator="in"></feComposite><feMorphology operator="dilate" radius="3"></feMorphology><feComposite in2="SourceAlpha" operator="out"></feComposite></filter><path d="M344.05 259.95C344.05 287.54 321.65 309.95 294.05 309.95C266.46 309.95 244.05 287.54 244.05 259.95C244.05 232.35 266.46 209.95 294.05 209.95C321.65 209.95 344.05 232.35 344.05 259.95Z" id="e36m3Lsw9w" fill="white" fill-opacity="1" filter="url(#shadow11848474)"></path></g><use xlink:href="#c2GFqKKL6N" opacity="1" fill="#ffde00" fill-opacity="1"></use><g><filter id="shadow7841225" x="226.05" y="191.95" width="147" height="145" filterUnits="userSpaceOnUse" primitiveUnits="userSpaceOnUse"><feFlood></feFlood><feComposite in2="SourceAlpha" operator="out"></feComposite><feGaussianBlur stdDeviation="1"></feGaussianBlur><feOffset dx="11" dy="-9" result="afterOffset"></feOffset><feFlood flood-color="#c2ae2a" flood-opacity="0.74"></feFlood><feComposite in2="afterOffset" operator="in"></feComposite><feMorphology operator="dilate" radius="0"></feMorphology><feComposite in2="SourceAlpha" operator="in"></feComposite></filter><path d="M344.05 259.95C344.05 287.54 321.65 309.95 294.05 309.95C266.46 309.95 244.05 287.54 244.05 259.95C244.05 232.35 266.46 209.95 294.05 209.95C321.65 209.95 344.05 232.35 344.05 259.95Z" id="ceVjz94Y7" fill="white" fill-opacity="1" filter="url(#shadow7841225)"></path></g></g></g></svg>